<svg width="24" height="24" viewBox="0 0 24 24" fill="none" xmlns="http://www.w3.org/2000/svg">
<path d="M12 20.7249C11.8333 20.7249 11.6706 20.7042 11.512 20.6629C11.354 20.6209 11.2 20.5582 11.05 20.4749L6.04995 17.7749C5.71662 17.5916 5.45828 17.3459 5.27495 17.0379C5.09162 16.7292 4.99995 16.3832 4.99995 15.9999V11.1999L2.59995 9.8749C2.41662 9.7749 2.28328 9.6499 2.19995 9.4999C2.11662 9.3499 2.07495 9.18324 2.07495 8.9999C2.07495 8.81657 2.11662 8.6499 2.19995 8.4999C2.28328 8.3499 2.41662 8.2249 2.59995 8.1249L11.05 3.5249C11.2 3.44157 11.354 3.3789 11.512 3.3369C11.6706 3.29557 11.8333 3.2749 12 3.2749C12.1666 3.2749 12.3293 3.29557 12.488 3.3369C12.646 3.3789 12.8 3.44157 12.95 3.5249L22.475 8.7249C22.6416 8.80824 22.771 8.9289 22.863 9.0869C22.9543 9.24557 23 9.41657 23 9.5999V15.9999C23 16.2832 22.9039 16.5206 22.712 16.7119C22.5206 16.9039 22.2833 16.9999 22 16.9999C21.7166 16.9999 21.4793 16.9039 21.288 16.7119C21.096 16.5206 21 16.2832 21 15.9999V10.0999L19 11.1999V15.9999C19 16.3832 18.9083 16.7292 18.725 17.0379C18.5416 17.3459 18.2833 17.5916 17.95 17.7749L12.95 20.4749C12.8 20.5582 12.646 20.6209 12.488 20.6629C12.3293 20.7042 12.1666 20.7249 12 20.7249ZM12 12.6999L18.85 8.9999L12 5.2999L5.14995 8.9999L12 12.6999ZM12 18.7249L17 16.0249V12.2499L12.975 14.4749C12.825 14.5582 12.6666 14.6206 12.5 14.6619C12.3333 14.7039 12.1666 14.7249 12 14.7249C11.8333 14.7249 11.6666 14.7039 11.5 14.6619C11.3333 14.6206 11.175 14.5582 11.025 14.4749L6.99995 12.2499V16.0249L12 18.7249Z" fill="#121212"/>
</svg>
