<svg width="24" height="24" viewBox="0 0 24 24" fill="none" xmlns="http://www.w3.org/2000/svg">
<path d="M5 18.875C4.78333 18.875 4.60433 18.8 4.463 18.65C4.321 18.5 4.25 18.325 4.25 18.125C4.25 17.9083 4.321 17.729 4.463 17.587C4.60433 17.4457 4.78333 17.375 5 17.375H6.25V10.125C6.25 8.79165 6.66667 7.59565 7.5 6.53699C8.33333 5.47899 9.41667 4.79999 10.75 4.49999V3.79999C10.75 3.44999 10.871 3.15399 11.113 2.91199C11.3543 2.67065 11.65 2.54999 12 2.54999C12.35 2.54999 12.6457 2.67065 12.887 2.91199C13.129 3.15399 13.25 3.44999 13.25 3.79999V4.49999C14.5833 4.79999 15.6667 5.47899 16.5 6.53699C17.3333 7.59565 17.75 8.79165 17.75 10.125V17.375H19C19.2167 17.375 19.396 17.4457 19.538 17.587C19.6793 17.729 19.75 17.9083 19.75 18.125C19.75 18.325 19.6793 18.5 19.538 18.65C19.396 18.8 19.2167 18.875 19 18.875H5ZM12 21.8C11.5 21.8 11.075 21.625 10.725 21.275C10.375 20.925 10.2 20.5 10.2 20H13.8C13.8 20.5 13.625 20.925 13.275 21.275C12.925 21.625 12.5 21.8 12 21.8ZM7.75 17.375H16.25V10.125C16.25 8.94165 15.8333 7.93732 15 7.11199C14.1667 6.28732 13.1667 5.87499 12 5.87499C10.8333 5.87499 9.83333 6.28732 9 7.11199C8.16667 7.93732 7.75 8.94165 7.75 10.125V17.375Z" fill="#121212"/>
</svg>
