<svg width="72" height="72" viewBox="0 0 72 72" fill="none" xmlns="http://www.w3.org/2000/svg">
<rect width="72" height="72" rx="36" fill="#C4C4C4"/>
<path d="M13.1587 41.9618C12.6625 41.6117 12.1681 41.8643 11.8953 42.272C11.629 42.6704 11.5036 43.3291 12.0222 43.8702C12.2618 44.1197 13.4627 44.697 14.1276 44.6429C13.8473 43.7872 13.6165 42.9151 13.434 42.0307C13.3417 42.0443 13.2438 42.0244 13.1567 41.9621L13.1587 41.9618Z" fill="white"/>
<path d="M60.2735 37.9286C61.0011 37.7582 62.0943 36.7787 62.2631 36.4577C62.6265 35.7667 62.2614 35.1934 61.837 34.9103C61.4057 34.6223 60.7888 34.5567 60.3857 35.0617C60.2946 35.1766 60.1575 35.2344 60.0224 35.233C60.0984 36.1295 60.1238 37.0366 60.0981 37.9503C60.1346 37.9522 60.1887 37.9511 60.2738 37.9306L60.2735 37.9286Z" fill="white"/>
<path d="M62.3448 34.1339C61.5299 33.5904 60.5756 33.6349 59.9135 34.2143C59.9568 34.552 59.9923 34.8911 60.0203 35.2334C60.1574 35.2345 60.2925 35.177 60.3836 35.062C60.7871 34.5591 61.4036 34.6227 61.8349 34.9107C62.257 35.1921 62.6225 35.7674 62.261 36.4581C62.0922 36.7791 60.999 37.7586 60.2714 37.929C60.1863 37.9495 60.1306 37.9529 60.0956 37.9487C60.0918 38.1036 60.086 38.2589 60.0782 38.4145C60.0789 38.4184 60.0799 38.4243 60.0767 38.4289C60.0699 38.5783 60.0591 38.7283 60.05 38.876C60.1515 38.8811 60.2559 38.8795 60.3693 38.8603C60.4065 38.8539 60.4436 38.8476 60.4821 38.837C61.4554 38.6086 62.7691 37.482 63.0779 36.8957C63.6861 35.7388 63.1232 34.6531 62.3425 34.1322L62.3448 34.1339Z" fill="#6F6F6F"/>
<path d="M14.2853 45.0937C14.2337 44.9442 14.1799 44.793 14.1322 44.6428C13.4653 44.6973 12.2664 44.1196 12.0268 43.8701C11.5082 43.329 11.634 42.6723 11.8999 42.2719C12.1707 41.8645 12.6667 41.6097 13.1632 41.9617C13.2503 42.024 13.3482 42.0439 13.4405 42.0302C13.4075 41.8714 13.3767 41.7143 13.3476 41.5548C13.3138 41.3677 13.28 41.1806 13.2523 40.9945C12.527 40.6814 11.7362 40.9417 11.2324 41.6952C10.7416 42.4302 10.6105 43.6359 11.4809 44.5414C11.9231 45.0001 13.3732 45.6588 14.2614 45.5687C14.295 45.5651 14.3306 45.561 14.3618 45.5557C14.3931 45.5504 14.4195 45.5398 14.4485 45.5329C14.3937 45.3879 14.3405 45.2407 14.2896 45.0951L14.2853 45.0937Z" fill="#6F6F6F"/>
<path d="M53.2941 21.9125C49.2244 17.3857 43.6542 14.7217 37.6108 14.4114C35.932 14.3254 34.2707 14.4252 32.6533 14.7002C28.4484 15.415 24.5267 17.322 21.2919 20.2753C16.8137 24.3656 14.1874 29.974 13.897 36.0662C13.607 42.1603 15.6901 48.0093 19.7579 52.5365C23.8277 57.0633 29.3979 59.7273 35.4412 60.0375C37.12 60.1236 38.7813 60.0238 40.3987 59.7488C44.6036 59.0339 48.5254 57.1269 51.7601 54.1737C56.2383 50.0834 58.8647 44.475 59.155 38.3828C59.445 32.2886 57.362 26.4396 53.2941 21.9125Z" fill="white"/>
<path d="M53.979 21.2862C49.7429 16.5745 43.9449 13.801 37.6542 13.4801C31.3632 13.1572 25.3307 15.3256 20.6696 19.583C16.0085 23.8403 13.2743 29.6782 12.974 36.0197C12.8941 37.7038 12.9899 39.3682 13.2503 40.9945C13.2822 41.1819 13.3141 41.3694 13.3456 41.5548C13.3747 41.7143 13.4055 41.8714 13.4385 42.0302C13.621 42.9146 13.8518 43.7868 14.1321 44.6424C14.1821 44.7943 14.2337 44.9438 14.2853 45.0934C14.3365 45.241 14.3894 45.3863 14.4442 45.5312C15.4798 48.3085 17.0362 50.8938 19.0736 53.1599C20.1058 54.3078 21.2293 55.3408 22.4323 56.2506L23.6384 57.1072C27.1126 59.409 31.1418 60.7498 35.3987 60.9679C37.1467 61.0584 38.8758 60.9553 40.5597 60.669C44.9367 59.9248 49.0183 57.9399 52.3836 54.867C56.9349 50.7095 59.6464 45.046 60.0526 38.8773C60.0613 38.7276 60.0724 38.5796 60.0792 38.4303C60.0785 38.4263 60.0775 38.4204 60.0808 38.4158C60.0885 38.2602 60.0924 38.1053 60.0982 37.95C60.1243 37.0383 60.0969 36.1315 60.0226 35.2328C59.9949 34.8924 59.9594 34.5534 59.9157 34.2137C59.3069 29.4253 57.2667 24.9411 53.9809 21.2858L53.979 21.2862ZM59.1554 38.3823C58.8654 44.4765 56.2391 50.0849 51.7605 54.1732C48.5258 57.1265 44.606 59.0331 40.3992 59.7483C38.7817 60.0233 37.1204 60.1231 35.4416 60.037C29.3963 59.7272 23.8265 57.0651 19.7583 52.536C15.6885 48.0092 13.6074 42.1598 13.8974 36.0657C14.1874 29.9715 16.8119 24.3635 21.2924 20.2748C24.5271 17.3215 28.4469 15.4149 32.6537 14.6997C34.2711 14.4247 35.9324 14.3249 37.6112 14.411C43.6565 14.7208 49.2264 17.3829 53.2946 21.912C57.3643 26.4388 59.4455 32.2882 59.1554 38.3823Z" fill="#6F6F6F"/>
<path d="M30.0833 39.6449C29.7264 39.6406 29.3911 39.7869 29.1365 40.0535C28.884 40.3197 28.7418 40.6788 28.738 41.059C28.7346 41.4412 28.8703 41.8018 29.1199 42.074C29.3697 42.3482 29.7035 42.5005 30.0604 42.5048C30.1371 42.5059 30.2104 42.4995 30.2847 42.4869C30.5566 42.4407 30.8052 42.3051 31.0048 42.0945C31.2574 41.8283 31.3976 41.4695 31.4014 41.0893C31.4082 40.3006 30.817 39.6521 30.083 39.6429L30.0833 39.6449Z" fill="#6F6F6F"/>
<path d="M44.9209 40.2339C44.6711 39.9597 44.3373 39.8074 43.9824 39.8028C43.6255 39.7985 43.2901 39.9448 43.0356 40.2114C42.7831 40.4776 42.6409 40.8367 42.6371 41.2169C42.6303 42.0056 43.2235 42.6538 43.9575 42.663C44.0342 42.6642 44.1076 42.6578 44.1799 42.6455C44.8097 42.5384 45.296 41.9544 45.3005 41.2472C45.3039 40.865 45.1685 40.5064 44.9187 40.2322L44.9209 40.2339Z" fill="#6F6F6F"/>
<path d="M37.3796 46.5946C37.3503 46.5996 37.3206 46.6026 37.2923 46.6013C37.2296 46.5998 37.1692 46.5877 37.1107 46.5632C35.6232 45.9453 35.7319 44.8327 35.7359 44.7853C35.7485 44.6817 35.7927 44.5869 35.8622 44.5101C36.2727 44.0608 36.3487 42.6615 36.3011 41.884C36.2829 41.611 36.4886 41.3771 36.7593 41.3595C36.8884 41.3498 37.0145 41.3933 37.1118 41.4803C37.2114 41.5689 37.27 41.6888 37.2788 41.8233C37.2922 42.0443 37.3986 44.0074 36.7296 44.996C36.7779 45.1501 36.9413 45.4248 37.4826 45.6494C37.7336 45.7529 37.8534 46.0431 37.7511 46.2939C37.6856 46.4532 37.5455 46.5643 37.3813 46.5923L37.3796 46.5946Z" fill="#6F6F6F"/>
<path d="M46.2456 33.3145C46.1396 33.2351 46.0112 33.2021 45.8798 33.2224C44.0171 33.4985 42.5639 33.8633 42.4019 33.905C42.2745 33.9368 42.1676 34.0179 42.1026 34.1325C42.0352 34.2455 42.0176 34.3784 42.0514 34.5066C42.1063 34.7226 42.3014 34.8761 42.5213 34.8794C42.5497 34.8806 42.5774 34.8779 42.6067 34.8729C42.6224 34.8703 42.638 34.8676 42.6533 34.863C42.8114 34.8219 44.2477 34.4641 46.0263 34.2023C46.1561 34.1843 46.2709 34.114 46.3474 34.0076C46.4258 33.9009 46.4582 33.7716 46.438 33.641C46.4198 33.5102 46.3501 33.3962 46.246 33.3164L46.2456 33.3145Z" fill="#6F6F6F"/>
<path d="M31.5527 34.3491C31.1159 33.7921 29.8742 32.9152 28.3062 33.5877C28.0588 33.6948 27.943 33.9844 28.0483 34.2365C28.0991 34.3578 28.1958 34.453 28.3167 34.5014C28.4376 34.5499 28.5723 34.5493 28.6921 34.4964C29.9579 33.9524 30.7526 34.9215 30.7857 34.9626C30.8779 35.0789 31.0162 35.1467 31.1653 35.1477C31.1937 35.149 31.2234 35.146 31.2527 35.141C31.3329 35.1274 31.4097 35.094 31.4754 35.0422C31.5781 34.9598 31.6428 34.8433 31.6588 34.7127C31.6748 34.5821 31.6367 34.4525 31.5566 34.3484L31.5527 34.3491Z" fill="#6F6F6F"/>
<path d="M45.2727 49.0461C41.5164 49.0027 38.4853 45.8866 38.5176 42.0996C38.5499 38.3125 41.6318 35.2654 45.3881 35.3088C49.1444 35.3522 52.1755 38.4683 52.1432 42.2554C52.1109 46.0424 49.0309 49.0892 45.2727 49.0461ZM45.3792 36.2035C42.113 36.1661 39.4324 38.8161 39.4046 42.1091C39.3769 45.4022 42.013 48.1124 45.2793 48.1498C48.5456 48.1872 51.2261 45.5372 51.2539 42.2442C51.2813 38.9492 48.6455 36.2409 45.3792 36.2035Z" fill="#6F6F6F"/>
<path d="M39.1255 41.2053C39.0913 41.1583 39.0419 41.1281 38.9692 41.1263L34.8097 41.0784C34.6785 41.0763 34.5545 41.1278 34.4613 41.2188C34.4301 41.2484 34.4263 41.2856 34.435 41.3247C34.3903 41.3932 34.3623 41.4772 34.3614 41.5666C34.3605 41.7271 34.4428 41.8674 34.569 41.9474C34.6095 42.0197 34.6795 42.0647 34.8025 42.0661L38.962 42.114C38.9924 42.1149 39.0201 42.1122 39.0494 42.1073C39.1902 42.0833 39.2149 42.0629 39.213 41.9922C39.3304 41.9133 39.408 41.7784 39.4099 41.6238C39.4117 41.4327 39.2935 41.2701 39.1271 41.203L39.1255 41.2053Z" fill="#6F6F6F"/>
<path d="M50.9325 39.09C50.9032 39.095 50.8755 39.0977 50.8451 39.0967C50.6739 39.0954 50.5198 39.0059 50.4304 38.8587C50.363 38.7463 50.3421 38.6119 50.3728 38.4848C50.4032 38.3559 50.4817 38.2491 50.5946 38.1792L53.4327 36.4443C53.544 36.3766 53.6773 36.356 53.8034 36.3873C53.9295 36.4187 54.0375 36.4978 54.1052 36.6121C54.1726 36.7244 54.1931 36.857 54.1627 36.9859C54.1323 37.1149 54.0539 37.2216 53.941 37.2916L51.1028 39.0265C51.0501 39.0598 50.9912 39.08 50.9306 39.0903L50.9325 39.09Z" fill="#6F6F6F"/>
<path d="M22.6131 38.7691C22.5857 38.7738 22.5561 38.7768 22.5277 38.7755C22.4429 38.7737 22.3563 38.7499 22.2824 38.7056L20.084 37.3865C19.9718 37.3183 19.8914 37.2122 19.8595 37.0836C19.8276 36.9551 19.8452 36.8222 19.9126 36.7092C19.9799 36.5963 20.0849 36.5155 20.2123 36.4837C20.3377 36.4522 20.4716 36.4701 20.5838 36.5383L22.7821 37.8574C23.015 37.9964 23.0928 38.2999 22.9536 38.5346C22.8785 38.6611 22.7539 38.7452 22.6131 38.7691Z" fill="#6F6F6F"/>
<path d="M28.3762 48.8537C24.6199 48.8103 21.5889 45.6943 21.6211 41.9072C21.6534 38.1201 24.7334 35.0734 28.4916 35.1164C32.2479 35.1599 35.279 38.2759 35.2467 42.063C35.2144 45.85 32.1325 48.8971 28.3762 48.8537ZM28.4828 36.0111C25.2165 35.9737 22.5359 38.6237 22.5082 41.9167C22.4804 45.2098 25.1165 47.92 28.3828 47.9574C31.6491 47.9948 34.3297 45.3448 34.3574 42.0518C34.3848 38.7568 31.749 36.0485 28.4828 36.0111Z" fill="#6F6F6F"/>
<path d="M59.4442 33.2281C59.4442 33.2281 59.4324 33.2301 59.4266 33.2311C59.2199 33.2581 59.021 33.1417 58.9395 32.9465C58.9359 32.937 58.46 31.8426 57.0005 30.5846C55.6472 29.4182 53.1483 27.87 48.9274 27.118C48.7345 27.0838 48.5837 26.9309 48.5505 26.7355C48.255 24.9975 47.4615 23.4192 46.3931 22.3667C46.6048 23.6359 46.7032 24.9365 46.6949 26.3081C46.6949 26.438 46.6393 26.5611 46.5455 26.6481C46.4516 26.7351 46.3243 26.7791 46.1957 26.7685C42.7573 26.4884 38.7932 26.7259 34.4162 27.47C29.4349 28.3169 25.2482 29.5058 21.9754 31.004C21.8595 31.0562 21.727 31.0584 21.6081 31.0096C21.4891 30.9608 21.3963 30.865 21.3517 30.7447C20.853 29.4329 20.4963 28.1397 20.283 26.885C19.7413 28.3858 19.6509 30.0555 20.054 31.5743C20.1088 31.7781 20.0188 31.9943 19.8372 32.0983C16.7819 33.858 15.3751 35.6439 14.7321 36.8331C14.0448 38.1049 14.0645 38.9784 14.0658 38.9863C14.0717 39.1863 13.9518 39.369 13.7665 39.4391C13.5812 39.5092 13.3725 39.4533 13.2459 39.3003L11.9594 37.7226C11.9037 37.6549 11.87 37.5754 11.8572 37.4883C11.8268 37.262 11.134 31.8851 13.1195 25.9634C14.2904 22.4699 16.1567 19.5281 18.6633 17.2162C21.7956 14.3351 25.9304 12.4386 30.9548 11.5844C35.9792 10.7302 40.6275 10.9548 44.6426 12.2716C47.9865 13.3696 50.9458 15.2231 53.4357 17.7836C58.2889 22.776 59.8863 28.9756 60.1574 30.1677C60.1707 30.2222 60.1722 30.2788 60.1657 30.3347L59.8272 32.8301C59.7991 33.0318 59.6453 33.1919 59.4477 33.2255L59.4442 33.2281Z" fill="#6F6F6F"/>
<path d="M32.7859 50.4404C32.7859 50.4404 32.7003 52.4462 33.4485 54.1012C33.9221 55.1473 34.7262 56.0539 36.0962 56.229C37.8386 56.4524 39.0056 55.0665 39.7422 53.5996C40.5014 52.0882 40.8016 50.4924 40.8016 50.4924L32.7875 50.4381L32.7859 50.4404Z" fill="#6F6F6F"/>
<path d="M36.1704 56.5249C36.1335 56.521 36.0966 56.5171 36.0597 56.5132C34.7492 56.3443 33.7741 55.5682 33.158 54.2054C32.391 52.511 32.4691 50.5085 32.4726 50.4226C32.4791 50.2713 32.6143 50.1549 32.7813 50.155L40.7954 50.2093C40.89 50.2094 40.979 50.2471 41.0386 50.3141C41.0999 50.3788 41.1268 50.4655 41.1105 50.5475C41.0978 50.6146 40.7952 52.1965 40.0286 53.7234C39.035 55.7029 37.7039 56.6681 36.17 56.5229L36.1704 56.5249ZM33.0978 50.7263C33.1054 51.3157 33.1836 52.77 33.7387 53.9991C34.2615 55.1565 35.067 55.8112 36.1328 55.9487C37.4293 56.118 38.5473 55.2845 39.4539 53.4801C39.983 52.4259 40.2855 51.317 40.4151 50.7773L33.0981 50.7283L33.0978 50.7263Z" fill="#6F6F6F"/>
</svg>
