<svg width="72" height="72" viewBox="0 0 72 72" fill="none" xmlns="http://www.w3.org/2000/svg">
<rect width="72" height="72" rx="36" fill="#C4C4C4"/>
<g clip-path="url(#clip0_1518_5621)">
<path d="M36.1659 56.2132C46.7141 56.3156 48.8612 53.7134 55.0186 45.7765C56.0069 43.8227 59.2727 39.032 59.0709 37.0846C59.0709 37.0846 64.8896 13.6538 37.2279 10.0768C37.23 10.0747 10.5777 9.18521 11.0803 34.2968C11.0803 34.2968 10.9625 38.6438 13.7636 42.5771C20.024 51.5761 24.6041 56.1002 36.1638 56.2111L36.1659 56.2132Z" fill="#6E6E6E"/>
<path d="M36.7352 56.2877C36.548 56.2877 36.3566 56.2877 36.1632 56.2856C30.5274 56.2323 26.4477 55.153 22.9358 52.7896C19.5691 50.5244 16.8101 47.086 13.704 42.6217C10.9219 38.7119 11.006 34.3393 11.006 34.2945C10.8609 27.0338 12.9764 21.2407 17.2937 17.0771C24.9673 9.68203 37.1095 9.99984 37.2315 10.002C46.0111 11.1367 52.3283 14.381 56.0168 19.6473C61.3729 27.2962 59.2384 36.692 59.1459 37.0866C59.2868 38.5669 57.4951 41.6277 56.185 43.8631C55.7287 44.6395 55.3354 45.3114 55.0852 45.8062C52.1159 49.6349 49.9751 52.3929 47.2792 54.0673C44.7599 55.6329 41.6791 56.2856 36.7373 56.2856L36.7352 56.2877ZM36.9518 10.1428C35.1285 10.1428 24.389 10.4392 17.3968 17.1816C13.1089 21.3153 11.0081 27.0744 11.1532 34.2967C11.1532 34.3436 11.0691 38.6693 13.8239 42.5385C20.4376 52.0431 25.0051 56.0339 36.1653 56.1405C46.806 56.2451 48.8585 53.5959 54.959 45.7316C55.2051 45.2453 55.5983 44.5712 56.0546 43.7927C57.3584 41.568 59.1438 38.52 58.9966 37.0909V37.0781V37.0653C59.0197 36.9693 61.2993 27.4476 55.8906 19.7284C52.2315 14.4983 45.948 11.2754 37.2188 10.1449C37.2083 10.1449 37.1179 10.1428 36.9518 10.1428Z" fill="#6E6E6E"/>
<path d="M58.2617 39.3648C57.1367 38.4647 56.1841 38.5777 55.5174 38.9019C55.4796 38.1042 55.4207 37.315 55.3303 36.5727L53.4292 26.9913C53.4292 26.9913 49.1919 12.5297 28.4277 18.6279C28.4277 18.6279 18.6618 20.3535 16.4642 32.84C16.4642 32.84 15.3223 35.8752 16.0878 42.4533C15.3665 42.2187 14.355 42.2208 13.3687 43.3599C13.3687 43.3599 11.3184 46.041 13.9344 49.4325C13.9344 49.4325 15.7429 51.2668 18.0393 51.4055C19.3704 58.295 26.4531 61.8315 36.8183 61.5563C37.0833 61.5499 37.3462 61.5457 37.6111 61.5563C39.5921 61.6246 53.8162 59.7028 54.9644 48.1527C57.307 47.6941 58.8295 45.4416 58.8295 45.4416C60.7768 41.6449 58.2638 39.369 58.2638 39.369L58.2617 39.3648Z" fill="white"/>
<path d="M35.6886 62C25.6283 62 19.1093 58.3206 17.6667 51.8022C15.3955 51.5142 13.6858 49.8057 13.6122 49.731C13.5996 49.7182 13.5891 49.7054 13.5786 49.6905C10.7943 46.0815 12.9898 43.1295 13.0129 43.0996C13.0192 43.0932 13.0234 43.0868 13.0297 43.0783C13.9151 42.0566 14.834 41.8347 15.5827 41.9051C14.9791 36.0224 15.9002 33.113 16.0348 32.7269C17.1998 26.1594 20.4677 22.5632 23.0039 20.7011C25.6535 18.758 28.0319 18.2589 28.3221 18.2034C35.798 16.0128 42.01 16.1963 46.7857 18.7495C52.2806 21.6866 53.7905 26.6586 53.8515 26.8676C53.8557 26.8804 53.8578 26.8911 53.8599 26.9039L55.7609 36.4852C55.7609 36.4852 55.7651 36.5044 55.7651 36.5151C55.8324 37.0526 55.885 37.6477 55.925 38.294C56.6231 38.134 57.5274 38.2172 58.5389 39.0256C58.5452 39.032 58.5515 39.0363 58.5599 39.0427C58.5873 39.0683 61.2916 41.5852 59.2202 45.625C59.2118 45.64 59.2034 45.6549 59.195 45.6698C59.1319 45.7637 57.6767 47.8817 55.3656 48.4939C54.781 53.3166 51.8222 57.1474 46.792 59.5897C42.8217 61.5158 38.6537 62.017 37.5918 61.9786C37.3247 61.9701 37.0555 61.9744 36.8263 61.9808C36.4436 61.9914 36.0629 61.9957 35.6886 61.9957V62ZM14.2641 49.1487C14.4471 49.3258 16.0811 50.8551 18.062 50.9724C18.2639 50.9852 18.43 51.1281 18.4679 51.3222C19.7254 57.8257 26.4085 61.3985 36.8032 61.1212C37.045 61.1148 37.331 61.1084 37.6233 61.1212C38.6285 61.1574 42.582 60.6732 46.4009 58.8197C51.3217 56.4329 54.0534 52.8281 54.5223 48.1057C54.5413 47.9159 54.6842 47.7623 54.8756 47.7239C56.8944 47.3293 58.295 45.4288 58.4464 45.2155C60.1497 41.8625 58.1456 39.8511 57.9711 39.6868C57.1951 39.0704 56.436 38.936 55.7147 39.2858C55.5801 39.3498 55.4224 39.3455 55.2941 39.2709C55.1658 39.1962 55.0838 39.064 55.0775 38.9189C55.0396 38.0743 54.9766 37.3085 54.8945 36.6388L52.9998 27.0937C52.9052 26.7908 51.3722 22.1793 46.3483 19.5024C41.7829 17.0687 35.7959 16.9151 28.5534 19.0395C28.5366 19.0438 28.5219 19.0481 28.5051 19.0502C28.4819 19.0545 26.1014 19.4981 23.498 21.4221C21.0986 23.1925 18.0052 26.6244 16.8991 32.9125C16.8949 32.9381 16.8886 32.9637 16.8781 32.9893C16.8675 33.017 15.7845 36.0352 16.5248 42.4042C16.5416 42.5514 16.4806 42.6965 16.365 42.7882C16.2472 42.882 16.0895 42.9098 15.9486 42.8628C15.139 42.5983 14.3882 42.8564 13.7153 43.6286C13.5807 43.8141 11.9678 46.1476 14.2683 49.1509L14.2641 49.1487Z" fill="#6E6E6E"/>
<path d="M54.4129 25.3767C53.4603 22.6636 52.0177 20.3514 50.123 18.5085C47.7551 16.2049 44.6722 14.6308 40.9521 13.8266C40.908 13.8224 36.5613 13.432 31.7792 14.2532C27.3568 15.0126 21.6474 16.9962 19.5655 22.1218L19.5613 22.1325C19.5592 22.1453 19.4541 22.6337 19.4393 23.3952L15.7676 23.1222L15.7046 23.0859C12.8593 27.8041 13.343 39.4374 13.3493 39.5547L13.3556 39.672L13.4607 39.6144C18.5477 36.7818 20.6758 32.5777 21.5654 29.5488C21.5906 29.4593 21.6159 29.3718 21.6411 29.2844C24.1982 32.0124 28.7742 33.3008 35.2533 33.1131L45.9045 32.166L45.7741 32.0551C45.7426 32.0295 42.7922 29.4998 42.277 25.8268C43.3432 27.6462 45.4229 29.6491 48.468 31.7842L48.6383 31.9037L55.6494 34.3715L55.6578 34.2798C55.662 34.2371 56.0342 29.9925 54.415 25.3767H54.4129Z" fill="#6E6E6E"/>
<path d="M35.5577 56.9443C35.5051 56.9443 35.4546 56.9443 35.402 56.9421C33.5557 56.8739 32.0963 55.8415 31.0658 53.8685C29.7852 51.4177 29.6401 48.3803 29.6338 48.2524C29.6232 48.0241 29.7978 47.8279 30.0312 47.8044L41.2166 46.7443C41.3491 46.7315 41.4774 46.7763 41.5699 46.868C41.6624 46.9576 41.7108 47.0835 41.6982 47.2115C41.6898 47.3138 41.4647 49.7476 40.5878 52.1642C39.4523 55.2955 37.7153 56.9443 35.5577 56.9443ZM30.5443 48.6235C30.6284 49.5151 30.9207 51.6993 31.8481 53.476C32.7229 55.1483 33.9279 56.0249 35.4315 56.0804C37.261 56.1508 38.7162 54.7324 39.753 51.8763C40.3586 50.2083 40.6425 48.4912 40.754 47.6551L30.5422 48.6235H30.5443Z" fill="#6E6E6E"/>
<path d="M29.853 41.5555L26.1958 42.4104C25.8251 42.497 25.4577 42.2741 25.3732 41.9127C25.2888 41.5513 25.5193 41.1885 25.8899 41.1019L27.9519 40.6199L26.0836 39.4641C25.7634 39.2674 25.6709 38.8531 25.8758 38.5379C26.0807 38.2228 26.5055 38.1279 26.8238 38.3251L30.0724 40.3323C30.3065 40.4747 30.4258 40.7447 30.3782 41.0121C30.3305 41.2795 30.1258 41.4939 29.8555 41.5571L29.853 41.5555Z" fill="#6E6E6E"/>
<path d="M45.367 41.7846L41.6749 41.0957C41.4021 41.0448 41.1879 40.8399 41.1282 40.5749C41.0686 40.3099 41.1772 40.0373 41.403 39.882L44.5576 37.7301C44.8666 37.5187 45.2953 37.5944 45.5143 37.8999C45.7332 38.2055 45.6591 38.6256 45.348 38.8366L43.5318 40.0752L45.6135 40.4636C45.9877 40.5334 46.2343 40.8854 46.1663 41.2502C46.0982 41.6151 45.7412 41.8544 45.367 41.7846Z" fill="#6E6E6E"/>
</g>
<defs>
<clipPath id="clip0_1518_5621">
<rect width="49" height="52" fill="white" transform="translate(11 10)"/>
</clipPath>
</defs>
</svg>
