<svg width="72" height="72" viewBox="0 0 72 72" fill="none" xmlns="http://www.w3.org/2000/svg">
<rect width="72" height="72" rx="36" fill="#C4C4C4"/>
<path d="M27.9909 15.3307C28.4204 20.0016 32.595 23.4438 37.3192 23.019C42.0412 22.5942 45.5211 18.4627 45.0917 13.7918C44.6622 9.12089 40.4854 5.68072 35.7634 6.10554C31.0414 6.53035 27.5615 10.6619 27.9909 15.3328V15.3307Z" fill="#6E6E6E"/>
<path d="M36.5342 23.1255C32.1111 23.1255 28.328 19.7769 27.9196 15.3372C27.4881 10.6372 31.0038 6.46188 35.7574 6.03499C40.5089 5.60809 44.7299 9.08366 45.1635 13.7858C45.5951 18.4879 42.0794 22.6611 37.3258 23.0901C37.0605 23.113 36.7974 23.1255 36.5342 23.1255ZM28.0607 15.3247C28.4859 19.9498 32.6353 23.3712 37.3111 22.9485C41.9868 22.5278 45.4456 18.4234 45.0204 13.7983C44.5951 9.17529 40.4478 5.75386 35.77 6.17451C31.0943 6.59516 27.6375 10.6996 28.0628 15.3247H28.0607Z" fill="#6E6E6E"/>
<path d="M37.6411 61.3487C47.824 61.4487 49.8977 58.9081 55.8428 51.1594C56.7965 49.2519 59.9501 44.5748 59.7565 42.6735C59.7565 42.6735 65.3753 19.798 38.6705 16.3058C38.6705 16.3058 12.9404 15.4374 13.4267 39.9539C13.4267 39.9539 13.313 44.1978 16.0183 48.0378C22.0624 56.8236 26.4833 61.2404 37.6432 61.3487H37.6411Z" fill="#6E6E6E"/>
<path d="M38.1931 61.422C38.012 61.422 37.8289 61.422 37.6415 61.42C32.2016 61.3679 28.2627 60.3142 24.8712 58.0069C21.6207 55.7953 18.9576 52.4384 15.9577 48.0799C13.2714 44.2628 13.3535 39.9938 13.3535 39.9522C13.2125 32.8636 15.2545 27.2077 19.425 23.1428C26.8312 15.921 38.5552 16.2313 38.671 16.2354C47.1466 17.3433 53.2455 20.5107 56.8054 25.6522C61.9758 33.1198 59.9169 42.2929 59.8264 42.6781C59.9632 44.1233 58.2327 47.1116 56.9675 49.294C56.5275 50.052 56.1486 50.7079 55.9065 51.1911C53.0392 54.929 50.9739 57.6216 48.3698 59.2563C45.9361 60.7848 42.9614 61.422 38.1931 61.422ZM38.4036 16.3708C36.6436 16.3708 26.2754 16.6602 19.526 23.2428C15.3851 27.2785 13.3556 32.9011 13.4967 39.9522C13.4967 39.998 13.4167 44.2212 16.0756 47.9987C22.4607 57.278 26.8691 61.1742 37.6436 61.2783C47.9171 61.3804 49.8982 58.794 55.7886 51.1161C56.0244 50.6413 56.4054 49.9833 56.8475 49.2232C58.1064 47.0512 59.8306 44.0754 59.6875 42.6802V42.6677V42.6552C59.7106 42.5615 61.9106 33.2655 56.6896 25.7292C53.1528 20.6231 47.0877 17.4766 38.6604 16.375C38.652 16.375 38.5615 16.3729 38.4036 16.3729V16.3708Z" fill="#6E6E6E"/>
<path d="M58.9735 44.8995C57.8893 44.0207 56.9672 44.1311 56.3252 44.4476C56.2894 43.6688 56.2325 42.8983 56.1441 42.1736L54.3083 32.8193C54.3083 32.8193 50.2179 18.7005 30.1719 24.6541C30.1719 24.6541 20.7426 26.3388 18.6226 38.5293C18.6226 38.5293 17.5195 41.4926 18.2584 47.9148C17.5616 47.6858 16.5869 47.6879 15.6332 48.7999C15.6332 48.7999 13.6522 51.4175 16.1785 54.7285C16.1785 54.7285 17.9237 56.5194 20.1405 56.6548C21.4268 63.381 28.2625 66.8337 38.2707 66.5651C38.5255 66.5588 38.7802 66.5546 39.037 66.5651C40.9486 66.6317 54.6831 64.7554 55.7904 53.4791C58.0514 53.0314 59.523 50.8323 59.523 50.8323C61.403 47.1256 58.9777 44.9036 58.9777 44.9036L58.9735 44.8995Z" fill="white"/>
<path d="M37.1827 67.0003C27.4692 67.0003 21.1766 63.4081 19.783 57.0442C17.5893 56.7631 15.9409 55.0951 15.8694 55.0222C15.8567 55.0097 15.8462 54.9972 15.8357 54.9826C13.1494 51.4592 15.2673 48.5771 15.2904 48.5479C15.2946 48.5417 15.3009 48.5354 15.3073 48.5271C16.162 47.5296 17.0483 47.313 17.7725 47.3818C17.1893 41.6384 18.0798 38.798 18.2083 38.4211C19.3325 32.0093 22.4882 28.4983 24.9366 26.6803C27.4944 24.7832 29.7891 24.296 30.0712 24.2418C37.2879 22.1032 43.2836 22.2822 47.8962 24.7749C53.2014 27.6424 54.6582 32.4966 54.7192 32.7006C54.7234 32.7131 54.7255 32.7235 54.7276 32.736L56.5634 42.0903C56.5634 42.0903 56.5676 42.109 56.5676 42.1195C56.6329 42.6442 56.6834 43.2252 56.7213 43.8562C57.395 43.7 58.2686 43.7812 59.2434 44.5705C59.2497 44.5767 59.256 44.5809 59.2623 44.5871C59.2897 44.6121 61.9002 47.0694 59.8981 51.0135C59.8897 51.0281 59.8812 51.0427 59.8728 51.0572C59.8118 51.1489 58.4076 53.2167 56.176 53.8144C55.6118 58.5227 52.7572 62.2628 47.9004 64.6472C44.0668 66.5276 40.0437 67.017 39.0184 66.9795C38.7595 66.9712 38.5006 66.9753 38.2795 66.9816C37.909 66.992 37.5427 66.9961 37.1827 66.9961V67.0003ZM16.4988 54.4516C16.6757 54.6244 18.2525 56.1175 20.164 56.2321C20.3577 56.2446 20.5198 56.3841 20.5556 56.5736C21.7703 62.9229 28.2207 66.411 38.2563 66.1403C38.49 66.134 38.7658 66.1278 39.0479 66.1403C40.0184 66.1757 43.8352 65.703 47.5215 63.8933C52.2708 61.5631 54.9087 58.0438 55.3613 53.4333C55.3803 53.248 55.5171 53.098 55.7024 53.0605C57.6518 52.6753 59.0034 50.8198 59.1507 50.6116C60.7949 47.338 58.8602 45.3743 58.6918 45.2139C57.9423 44.6121 57.2097 44.4809 56.5129 44.8224C56.3845 44.8849 56.2308 44.8808 56.1066 44.8079C55.9824 44.735 55.9045 44.6059 55.8981 44.4643C55.8603 43.6396 55.8013 42.892 55.7213 42.2382L53.8919 32.9193C53.7992 32.6236 52.3214 28.1214 47.4688 25.5079C43.0605 23.1319 37.2816 22.9819 30.2902 25.056C30.2754 25.0602 30.2586 25.0644 30.2439 25.0665C30.2207 25.0706 27.9239 25.5038 25.4081 27.3821C23.0903 29.1105 20.1051 32.4612 19.0377 38.6002C19.0335 38.6251 19.0272 38.6501 19.0167 38.6751C19.0061 38.7022 17.9599 41.6488 18.6756 47.867C18.6925 48.0106 18.6335 48.1523 18.5198 48.2418C18.4062 48.3334 18.2546 48.3605 18.1177 48.3147C17.3367 48.0565 16.6125 48.3084 15.962 49.0623C15.8315 49.2434 14.2757 51.5216 16.4946 54.4537L16.4988 54.4516Z" fill="#6E6E6E"/>
<path d="M21.6836 28.0942C21.6836 28.0942 19.1805 39.2456 36.7549 38.7291L46.8705 37.8191C46.8705 37.8191 43.7843 35.1869 43.4285 31.3365C44.9632 34.2915 48.9189 36.9862 49.721 37.563L56.3861 39.9328C56.3861 39.9328 57.904 23.4587 42.2559 20.0414C42.2559 20.0414 25.5509 18.465 21.6815 28.0963L21.6836 28.0942Z" fill="#6E6E6E"/>
<path d="M56.4518 40.0282L49.6835 37.6188L49.5193 37.5022C46.5804 35.4177 44.572 33.4623 43.5426 31.686C44.0394 35.2698 46.8878 37.7396 46.9173 37.7666L47.0436 37.8749L36.7617 38.7995C30.2649 38.9911 25.7492 37.6271 23.3408 34.7471C20.8293 31.7422 21.6061 28.1146 21.6124 28.0792L21.6167 28.0688C23.6271 23.0626 29.1386 21.128 33.408 20.3867C38.0227 19.585 42.2205 19.9661 42.2626 19.9702C45.8541 20.7532 48.8288 22.2921 51.1151 24.5411C52.9445 26.3404 54.3361 28.5956 55.2561 31.2466C56.8203 35.755 56.4603 39.8991 56.4561 39.9386L56.4476 40.0282H56.4518ZM49.7593 37.5001L56.3255 39.8345C56.3676 39.2035 56.5508 35.3968 55.1235 31.2861C53.6898 27.1567 50.292 21.8673 42.2437 20.1097C42.21 20.1077 38.029 19.7266 33.4312 20.5262C29.1997 21.2613 23.7408 23.1751 21.7514 28.1167C21.7177 28.2749 21.0272 31.763 23.4524 34.6617C25.8313 37.5043 30.307 38.8516 36.7532 38.66L46.7046 37.7646C46.1299 37.2273 43.671 34.743 43.3594 31.3424L43.3258 30.9821L43.4921 31.3028C44.4478 33.1437 46.5025 35.1907 49.5993 37.3876L49.7551 37.498L49.7593 37.5001Z" fill="#6E6E6E"/>
<path d="M24.1725 29.5149C24.1725 29.5149 25.1535 39.7542 15.6884 45.0853C15.6884 45.0853 15.1832 33.6881 17.9537 29.0443" fill="#6E6E6E"/>
<path d="M15.6231 45.2044L15.6189 45.0899C15.6147 44.9754 15.1452 33.6178 17.8925 29.0115L18.0146 29.0823C15.4378 33.4033 15.7136 43.7551 15.7557 44.967C20.5493 42.2266 22.564 38.195 23.4103 35.2858C24.3345 32.108 24.105 29.5467 24.1029 29.5217L24.244 29.5092C24.2461 29.5342 24.4798 32.1185 23.5493 35.3212C22.6903 38.2783 20.6356 42.3807 15.7241 45.1482L15.6231 45.2044Z" fill="#6E6E6E"/>
<path d="M31.7617 51.6039C31.7617 51.6039 31.888 54.5735 33.0985 56.9121C33.8627 58.3885 35.0564 59.615 36.9216 59.6838C39.2963 59.7712 40.6984 57.5639 41.511 55.2982C42.3489 52.9638 42.5594 50.5669 42.5594 50.5669L31.7617 51.6019V51.6039Z" fill="#6E6E6E"/>
<path d="M37.0565 60.1089C37.0059 60.1089 36.9554 60.1089 36.9049 60.1069C35.1217 60.0402 33.7134 59.0323 32.7176 57.1061C31.4797 54.7134 31.3408 51.748 31.3344 51.6231C31.3239 51.4002 31.4944 51.2087 31.7176 51.1857L42.5153 50.1508C42.6437 50.1383 42.7658 50.182 42.8564 50.2716C42.9469 50.359 42.9911 50.4819 42.9806 50.6068C42.9721 50.7068 42.7553 53.0828 41.909 55.4422C40.8122 58.4992 39.1343 60.1089 37.0522 60.1089H37.0565ZM32.2165 51.9854C32.2986 52.8559 32.5786 54.9883 33.4755 56.7229C34.3197 58.3555 35.4838 59.2114 36.9365 59.2656C38.7027 59.3343 40.109 57.9495 41.109 55.1611C41.6922 53.5326 41.9679 51.8563 42.0753 51.04L32.2165 51.9854Z" fill="#6E6E6E"/>
<path d="M27.5726 52.0644C27.5958 51.0768 26.2228 50.2441 24.506 50.2047C22.7892 50.1653 21.3786 50.934 21.3555 51.9216C21.3323 52.9093 22.7052 53.7419 24.4221 53.7814C26.1389 53.8208 27.5494 53.0521 27.5726 52.0644Z" fill="#6E6E6E"/>
<path d="M54.7738 52.1341C54.7507 53.1212 53.3402 53.8917 51.6223 53.8521C49.9065 53.8126 48.5318 52.9796 48.555 51.9925C48.5781 51.0055 49.9886 50.235 51.7065 50.2745C53.4244 50.3141 54.797 51.1471 54.7738 52.1362V52.1341Z" fill="#6E6E6E"/>
<path d="M30.8813 46.2408H27.254C26.8877 46.2408 26.5908 45.9472 26.5908 45.5848C26.5908 45.2225 26.8877 44.9289 27.254 44.9289H29.2981L27.795 43.4149C27.5382 43.1567 27.5424 42.7423 27.8034 42.4883C28.0645 42.2342 28.4855 42.2384 28.7403 42.4966L31.3528 45.1267C31.5402 45.3141 31.5949 45.5973 31.4918 45.841C31.3886 46.0846 31.1486 46.2429 30.8813 46.2429V46.2408Z" fill="#6E6E6E"/>
<path d="M27.9911 15.3307C28.4205 20.0016 32.5952 23.4438 37.3193 23.019C42.0414 22.5942 45.5213 18.4627 45.0918 13.7918C44.6603 9.12089 40.4856 5.68072 35.7615 6.10554C31.0394 6.53035 27.5595 10.6619 27.989 15.3328L27.9911 15.3307Z" fill="#6E6E6E"/>
<path d="M36.5342 23.1255C32.1111 23.1255 28.328 19.7769 27.9196 15.3372C27.4881 10.6372 31.0038 6.46188 35.7553 6.03499C40.5068 5.60809 44.7278 9.08366 45.1614 13.7858C45.593 18.4879 42.0773 22.6611 37.3237 23.0901C37.0584 23.113 36.7953 23.1255 36.5321 23.1255H36.5342ZM28.0607 15.3247C28.4859 19.9498 32.6353 23.3712 37.3111 22.9485C41.9868 22.5278 45.4456 18.4234 45.0204 13.7983C44.5951 9.17529 40.4478 5.75386 35.7679 6.17451C31.0922 6.59516 27.6354 10.6996 28.0607 15.3247Z" fill="#6E6E6E"/>
<path d="M37.6411 61.3487C47.824 61.4487 49.8956 58.9081 55.8428 51.1594C56.7965 49.2519 59.9501 44.5748 59.7565 42.6735C59.7565 42.6735 65.3753 19.798 38.6705 16.3058C38.6705 16.3058 12.9404 15.4374 13.4267 39.9539C13.4267 39.9539 13.313 44.1978 16.0183 48.0378C22.0624 56.8236 26.4833 61.2404 37.6432 61.3487H37.6411Z" fill="#6E6E6E"/>
<path d="M38.1931 61.422C38.012 61.422 37.8289 61.422 37.6415 61.42C32.2016 61.3679 28.2627 60.3142 24.8712 58.0069C21.6207 55.7953 18.9576 52.4384 15.9577 48.0799C13.2714 44.2628 13.3535 39.9938 13.3535 39.9522C13.2125 32.8636 15.2545 27.2077 19.425 23.1428C26.8312 15.921 38.5552 16.2313 38.671 16.2354C47.1466 17.3433 53.2455 20.5107 56.8054 25.6522C61.9758 33.1198 59.9169 42.2929 59.8264 42.6781C59.9632 44.1254 58.2327 47.1116 56.9675 49.294C56.5275 50.052 56.1486 50.7079 55.9065 51.1911C53.0392 54.929 50.9739 57.6216 48.3698 59.2563C45.9361 60.7848 42.9614 61.422 38.1931 61.422ZM38.4036 16.3708C36.6436 16.3708 26.2754 16.6602 19.526 23.2428C15.3851 27.2785 13.3556 32.9011 13.4967 39.9522C13.4967 39.998 13.4167 44.2212 16.0756 47.9987C22.4607 57.278 26.8691 61.1742 37.6436 61.2783C47.9171 61.3804 49.8982 58.794 55.7886 51.1161C56.0244 50.6413 56.4054 49.9833 56.8475 49.2232C58.1064 47.0512 59.8306 44.0754 59.6875 42.6802V42.6677V42.6552C59.7106 42.5615 61.9106 33.2655 56.6896 25.7292C53.1528 20.6231 47.0877 17.4766 38.6604 16.375C38.652 16.375 38.5615 16.3729 38.4036 16.3729V16.3708Z" fill="#6E6E6E"/>
<path d="M58.9735 44.8995C57.8893 44.0207 56.9672 44.1311 56.3252 44.4476C56.2894 43.6688 56.2325 42.8983 56.1441 42.1736L54.3083 32.8193C54.3083 32.8193 50.2179 18.7005 30.1719 24.6541C30.1719 24.6541 20.7426 26.3388 18.6226 38.5293C18.6226 38.5293 17.5195 41.4926 18.2584 47.9148C17.5616 47.6858 16.5869 47.6879 15.6332 48.7999C15.6332 48.7999 13.6522 51.4175 16.1785 54.7285C16.1785 54.7285 17.9237 56.5194 20.1405 56.6548C21.4268 63.381 28.2625 66.8337 38.2707 66.5651C38.5255 66.5588 38.7802 66.5546 39.037 66.5651C40.9486 66.6296 54.6831 64.7554 55.7904 53.4791C58.0514 53.0314 59.523 50.8323 59.523 50.8323C61.403 47.1256 58.9777 44.9036 58.9777 44.9036L58.9735 44.8995Z" fill="white"/>
<path d="M37.1827 67.0003C27.4692 67.0003 21.1766 63.4081 19.783 57.0442C17.5893 56.7631 15.9409 55.0951 15.8694 55.0222C15.8567 55.0097 15.8462 54.9972 15.8357 54.9826C13.1494 51.4592 15.2673 48.5771 15.2904 48.5479C15.2946 48.5417 15.3009 48.5354 15.3073 48.5271C16.162 47.5296 17.0483 47.313 17.7725 47.3818C17.1893 41.6384 18.0798 38.798 18.2083 38.4211C19.3325 32.0093 22.4882 28.4983 24.9366 26.6803C27.4944 24.7832 29.7891 24.296 30.0712 24.2418C37.2879 22.1032 43.2836 22.2822 47.8962 24.7749C53.2014 27.6424 54.6582 32.4966 54.7192 32.7006C54.7234 32.7131 54.7255 32.7235 54.7276 32.736L56.5634 42.0903C56.5634 42.0903 56.5676 42.109 56.5676 42.1195C56.6329 42.6442 56.6834 43.2252 56.7213 43.8562C57.395 43.7 58.2686 43.7812 59.2434 44.5705C59.2497 44.5767 59.256 44.5809 59.2623 44.5871C59.2897 44.6121 61.9002 47.0694 59.8981 51.0135C59.8897 51.0281 59.8812 51.0427 59.8728 51.0572C59.8118 51.1489 58.4076 53.2167 56.176 53.8144C55.6118 58.5227 52.7572 62.2628 47.9004 64.6472C44.0668 66.5276 40.0437 67.017 39.0184 66.9795C38.7595 66.9712 38.5006 66.9753 38.2795 66.9816C37.909 66.992 37.5427 66.9961 37.1827 66.9961V67.0003ZM16.4967 54.4516C16.6736 54.6244 18.2504 56.1175 20.1619 56.2321C20.3556 56.2446 20.5177 56.3841 20.5535 56.5736C21.7661 62.9229 28.2186 66.411 38.2542 66.1403C38.4879 66.134 38.7637 66.1278 39.0458 66.1403C40.0163 66.1757 43.8331 65.703 47.5193 63.8933C52.2687 61.5631 54.9066 58.0438 55.3592 53.4333C55.3782 53.248 55.515 53.098 55.7003 53.0605C57.6497 52.6753 59.0013 50.8198 59.1486 50.6116C60.7949 47.338 58.8581 45.3743 58.6897 45.2139C57.9402 44.6121 57.2076 44.4809 56.5108 44.8224C56.3824 44.8849 56.2287 44.8808 56.1045 44.8079C55.9803 44.735 55.9024 44.6059 55.896 44.4643C55.8582 43.6396 55.7992 42.892 55.7192 42.2382L53.8898 32.9193C53.7971 32.6236 52.3193 28.1214 47.4667 25.5079C43.0584 23.1319 37.2795 22.9819 30.2881 25.056C30.2733 25.0602 30.2565 25.0644 30.2417 25.0665C30.2186 25.0706 27.9218 25.5038 25.406 27.3821C23.0882 29.1105 20.103 32.4612 19.0356 38.6002C19.0314 38.6251 19.0251 38.6501 19.0146 38.6751C19.004 38.7022 17.9577 41.6488 18.6735 47.867C18.6904 48.0106 18.6314 48.1523 18.5177 48.2418C18.4041 48.3334 18.2525 48.3605 18.1156 48.3147C17.3346 48.0565 16.6104 48.3084 15.9599 49.0623C15.8294 49.2434 14.2736 51.5216 16.4925 54.4537L16.4967 54.4516Z" fill="#6E6E6E"/>
<path d="M21.6836 28.0942C21.6836 28.0942 19.1805 39.2456 36.7549 38.7291L46.8705 37.8191C46.8705 37.8191 43.7843 35.1869 43.4285 31.3365C44.9632 34.2915 48.9189 36.9862 49.721 37.563L56.3861 39.9328C56.3861 39.9328 57.904 23.4587 42.2559 20.0414C42.2559 20.0414 25.5509 18.465 21.6815 28.0963L21.6836 28.0942Z" fill="#6E6E6E"/>
<path d="M56.4518 40.0282L49.6835 37.6188L49.5193 37.5022C46.5804 35.4177 44.572 33.4623 43.5426 31.686C44.0394 35.2698 46.8878 37.7396 46.9173 37.7666L47.0436 37.8749L36.7617 38.7995C30.2649 38.9911 25.7492 37.6271 23.3408 34.7471C20.8293 31.7422 21.6061 28.1146 21.6124 28.0792L21.6167 28.0688C23.6271 23.0626 29.1386 21.128 33.408 20.3867C38.0227 19.585 42.2205 19.9661 42.2626 19.9702C45.8541 20.7532 48.8288 22.2921 51.1151 24.5411C52.9445 26.3404 54.3361 28.5956 55.2561 31.2466C56.8203 35.755 56.4603 39.8991 56.4561 39.9386L56.4476 40.0282H56.4518ZM49.7593 37.5001L56.3255 39.8345C56.3676 39.2035 56.5508 35.3968 55.1235 31.2861C53.6898 27.1567 50.292 21.8673 42.2437 20.1097C42.21 20.1077 38.029 19.7266 33.4312 20.5262C29.1997 21.2613 23.7408 23.1751 21.7514 28.1167C21.7177 28.2749 21.0272 31.763 23.4524 34.6617C25.8313 37.5043 30.307 38.8516 36.7532 38.66L46.7046 37.7646C46.1299 37.2273 43.671 34.743 43.3594 31.3424L43.3258 30.9821L43.4921 31.3028C44.4478 33.1437 46.5025 35.1907 49.5993 37.3876L49.7551 37.498L49.7593 37.5001Z" fill="#6E6E6E"/>
<path d="M24.1725 29.5149C24.1725 29.5149 25.1535 39.7542 15.6884 45.0853C15.6884 45.0853 15.1832 33.6881 17.9537 29.0443" fill="#6E6E6E"/>
<path d="M15.6231 45.2044L15.6189 45.0899C15.6147 44.9754 15.1452 33.6178 17.8925 29.0115L18.0146 29.0823C15.4378 33.4033 15.7136 43.7571 15.7557 44.967C20.5493 42.2266 22.564 38.195 23.4103 35.2858C24.3345 32.108 24.105 29.5467 24.1029 29.5217L24.244 29.5092C24.2461 29.5342 24.4798 32.1185 23.5493 35.3212C22.6903 38.2783 20.6356 42.3807 15.7241 45.1482L15.6231 45.2044Z" fill="#6E6E6E"/>
<path d="M31.7617 51.6039C31.7617 51.6039 31.888 54.5735 33.0985 56.9121C33.8606 58.3885 35.0564 59.615 36.9216 59.6838C39.2963 59.7712 40.6984 57.5639 41.511 55.2982C42.3489 52.9638 42.5594 50.5669 42.5594 50.5669L31.7617 51.6019V51.6039Z" fill="#6E6E6E"/>
<path d="M37.0565 60.1089C37.0059 60.1089 36.9554 60.1089 36.9049 60.1069C35.1217 60.0402 33.7134 59.0323 32.7176 57.1061C31.4797 54.7134 31.3408 51.748 31.3344 51.6231C31.3239 51.4002 31.4944 51.2087 31.7176 51.1857L42.5153 50.1508C42.6437 50.1383 42.7658 50.182 42.8564 50.2716C42.9469 50.359 42.9911 50.4819 42.9806 50.6068C42.9721 50.7068 42.7553 53.0828 41.909 55.4422C40.8122 58.4992 39.1343 60.1089 37.0522 60.1089H37.0565ZM32.2165 51.9854C32.2986 52.8559 32.5786 54.9883 33.4755 56.7229C34.3197 58.3555 35.4838 59.2114 36.9365 59.2656C38.7027 59.3343 40.109 57.9495 41.109 55.1611C41.6922 53.5326 41.9679 51.8563 42.0753 51.04L32.2165 51.9854Z" fill="#6E6E6E"/>
<path d="M27.5726 52.0644C27.5958 51.0768 26.2228 50.2441 24.506 50.2047C22.7892 50.1653 21.3786 50.934 21.3555 51.9216C21.3323 52.9093 22.7052 53.7419 24.4221 53.7814C26.1389 53.8208 27.5494 53.0521 27.5726 52.0644Z" fill="#C4C4C4"/>
<path d="M54.7719 52.1338C54.7487 53.1208 53.3382 53.8913 51.6203 53.8518C49.9046 53.8122 48.5299 52.9792 48.553 51.9901C48.5762 51.003 49.9867 50.2325 51.7045 50.2721C53.4224 50.3117 54.795 51.1446 54.7719 52.1317V52.1338Z" fill="#C4C4C4"/>
<path d="M30.8821 46.2408H27.2569C26.8906 46.2408 26.5938 45.9472 26.5938 45.5848C26.5938 45.2225 26.8906 44.9289 27.2569 44.9289H29.3011L27.7979 43.4149C27.5411 43.1567 27.5453 42.7423 27.8064 42.4883C28.0674 42.2342 28.4885 42.2384 28.7432 42.4966L31.3558 45.1267C31.5431 45.3141 31.5979 45.5973 31.4947 45.841C31.3916 46.0846 31.1516 46.2429 30.8842 46.2429L30.8821 46.2408Z" fill="#6E6E6E"/>
<path d="M45.2794 46.2404H41.6542C41.3868 46.2404 41.1447 46.0822 41.0437 45.8385C40.9405 45.5949 40.9952 45.3138 41.1826 45.1243L43.7952 42.4941C44.052 42.2359 44.471 42.2318 44.732 42.4858C44.9931 42.7399 44.9973 43.1564 44.7404 43.4146L43.2373 44.9285H45.2815C45.6478 44.9285 45.9446 45.2221 45.9446 45.5845C45.9446 45.9468 45.6478 46.2404 45.2815 46.2404H45.2794Z" fill="#6E6E6E"/>
</svg>
