<svg width="69" height="24" viewBox="0 0 69 24" fill="none" xmlns="http://www.w3.org/2000/svg">
<g clip-path="url(#clip0_1373_3786)">
<path d="M12 0C11.0842 0 10.2 0.0947368 9.34737 0.315789H9.28421C9.25263 0.315789 9.25263 0.315789 9.22105 0.315789C9.22105 0.315789 9.22105 0.315789 9.18947 0.315789C3.78947 1.61053 0 6.41053 0 12C0 18.6316 5.4 24 12 24C12.8526 24 13.7053 23.9053 14.5579 23.7158C20.0526 22.5158 24 17.5895 24 12C24 5.4 18.6316 0 12 0ZM12.0316 16.0737C9.78947 16.0737 7.95789 14.2421 7.95789 12C7.95789 9.75789 9.78947 7.92632 12.0316 7.92632C14.2737 7.92632 16.1053 9.75789 16.1053 12C16.1053 14.2421 14.2737 16.0737 12.0316 16.0737ZM9.56842 5.11579C8.68421 6.44211 8.27368 7.64211 8.11579 8.11579C7.07368 9.15789 6.50526 10.5474 6.50526 12C6.50526 12.6947 6.63158 13.3895 6.88421 14.0211C6.15789 13.3263 5.58947 12.4421 5.14737 11.4316C4.13684 9.03158 4.70526 6.94737 5.36842 5.58947C6.28421 3.69474 7.98947 2.14737 9.56842 1.70526C10.3579 1.51579 11.1789 1.42105 12 1.42105C12.5053 1.42105 12.9789 1.45263 13.4842 1.51579C11.5579 2.55789 10.2947 4.04211 9.56842 5.11579ZM3.85263 12C5.05263 14.8421 7.0421 16.1684 8.49474 16.8C9.88421 17.4 11.0526 17.4632 11.3368 17.4632C11.5895 17.4947 11.8105 17.4947 12 17.4947C12.7263 17.4947 13.4211 17.3684 14.0842 17.0842C13.0421 18.2211 11.2421 19.3263 8.27368 19.3263C8.14737 19.3263 7.07368 19.3263 5.74737 18.7579C4.45263 18.1895 2.68421 16.8947 1.61053 14.0526C1.48421 13.3579 1.38947 12.6632 1.38947 11.9684C1.38947 9.41053 2.33684 6.94737 3.97895 5.02105C3.28421 6.66316 2.65263 9.15789 3.85263 12ZM8.24211 20.7789C8.27368 20.7789 8.30526 20.7789 8.33684 20.7789C12.6632 20.7789 14.9053 18.6947 16.0421 16.9579C17.2105 15.1579 17.4316 13.3579 17.4316 13.1368C17.4316 13.1368 17.4316 13.1368 17.4316 13.1053C17.5263 12.7263 17.5579 12.3474 17.5579 11.9684C17.5579 11.2105 17.4 10.4842 17.1158 9.82105C18.2842 10.8947 19.0421 12.3474 19.4211 14.1789C19.4526 14.4316 19.6105 15.8526 19.1368 17.4632C18.6316 19.1053 17.4 21.2526 14.2105 22.3263C13.4842 22.4842 12.7263 22.5474 12 22.5474C9.53684 22.5474 7.16842 21.6632 5.27368 20.1158C6.66316 20.7474 7.89474 20.7789 8.24211 20.7789ZM20.4947 17.9053C21.1263 15.7895 20.8105 13.9895 20.8105 13.9579C20.0842 10.2316 17.9684 8.43158 16.3263 7.54737C14.7158 6.69474 13.2632 6.56842 12.9158 6.56842C12.6 6.50526 12.3158 6.50526 12.0316 6.50526C11.4316 6.50526 10.8316 6.6 10.2632 6.78947C10.4211 6.47368 10.6105 6.18947 10.8 5.90526C11.6526 4.61053 13.2316 2.90526 15.8211 2.14737C19.8632 3.72632 22.6105 7.67368 22.6105 12C22.6105 14.4 21.7579 16.7368 20.2737 18.6316C20.3053 18.3789 20.4 18.1579 20.4947 17.9053Z" fill="#B21825"/>
<path d="M36.5366 2.33691C37.1998 2.62112 37.7682 3.00006 38.2419 3.47375C38.7472 3.94743 39.1261 4.51585 39.4419 5.17901C39.7261 5.84217 39.884 6.5369 39.884 7.26322C39.884 8.02112 39.7261 8.71585 39.4419 9.34743C39.1577 10.0106 38.7472 10.579 38.2419 11.0527C37.7682 11.5264 37.1682 11.9053 36.5366 12.1895C35.8735 12.4737 35.1787 12.6001 34.4208 12.6001C33.6629 12.6001 32.9366 12.4737 32.305 12.1895C31.6419 11.9053 31.0735 11.5264 30.5682 11.0527C30.0629 10.579 29.684 10.0106 29.3998 9.34743C29.1156 8.68427 28.9893 7.98954 28.9893 7.26322C28.9893 6.5369 29.1156 5.84217 29.3998 5.17901C29.684 4.51585 30.0629 3.94743 30.5682 3.47375C31.0735 3.00006 31.6419 2.58954 32.305 2.33691C32.9682 2.05269 33.6629 1.92638 34.4208 1.92638C35.1787 1.8948 35.8735 2.05269 36.5366 2.33691ZM32.2419 4.92638C31.6419 5.55796 31.3577 6.34743 31.3577 7.26322C31.3577 8.17901 31.6419 8.96848 32.2419 9.60006C32.8419 10.2316 33.5682 10.5474 34.4208 10.5474C35.2735 10.5474 35.9998 10.2316 36.5682 9.60006C37.1682 8.96848 37.4524 8.17901 37.4524 7.26322C37.4524 6.34743 37.1682 5.55796 36.5682 4.92638C35.9682 4.2948 35.2735 3.94743 34.4208 3.94743C33.5682 3.94743 32.8419 4.26322 32.2419 4.92638ZM40.9893 14.4632V15.8843C40.9893 16.5159 41.1787 17.1474 41.5261 17.7159C41.905 18.3159 42.3787 18.8527 42.9472 19.3264C43.484 19.8316 44.0524 20.2422 44.7156 20.5895C45.3472 20.9369 45.9787 21.1895 46.6103 21.379L45.3156 22.9264C44.8103 22.8001 44.2419 22.579 43.6735 22.2632C43.105 21.979 42.5366 21.6316 41.9998 21.2527C41.4945 20.8737 41.0524 20.4948 40.6419 20.0843C40.2314 19.6737 39.9156 19.2632 39.6945 18.8527C39.4735 19.2316 39.1577 19.6422 38.7472 20.0527C38.3366 20.4632 37.8629 20.8422 37.3577 21.2211C36.8208 21.6001 36.2524 21.979 35.6524 22.2632C35.0524 22.579 34.5156 22.8001 33.9787 22.9264L32.684 21.379C33.3472 21.1895 34.0103 20.8737 34.7366 20.4632C35.4629 20.0527 36.0945 19.579 36.6629 19.0422C37.1682 18.6001 37.5472 18.0948 37.8629 17.558C38.1472 17.0211 38.305 16.4527 38.305 15.9159V14.4948H40.9893V14.4632ZM43.7366 1.2948H46.0735V15.0001H43.7366V1.2948Z" fill="#121212"/>
<path d="M55.8627 9.09477C55.3575 8.81056 54.9469 8.46319 54.568 8.08424C54.1891 7.7053 53.9048 7.23161 53.7154 6.72635C53.5259 6.22109 53.3996 5.68424 53.3996 5.11582C53.3996 4.48424 53.5259 3.88424 53.8101 3.31582C54.0943 2.7474 54.4733 2.24214 54.9469 1.83161C55.4206 1.42109 55.9891 1.07372 56.6206 0.821086C57.2522 0.568454 57.9469 0.442139 58.6733 0.442139C59.3996 0.442139 60.0943 0.568454 60.7259 0.821086C61.3575 1.07372 61.9259 1.42109 62.3996 1.83161C62.8733 2.24214 63.2522 2.7474 63.5364 3.31582C63.8206 3.88424 63.9469 4.48424 63.9469 5.11582C63.9469 6.25267 63.568 7.23161 62.8101 8.05266C62.0522 8.87372 61.0733 9.44214 59.9364 9.66319V10.8632H68.3996V12.6948H48.8838V10.8632H57.4733V9.66319C56.9048 9.56845 56.3364 9.37898 55.8627 9.09477ZM62.4627 17.4316V16.0421H52.3259V14.2421H64.9891V19.1053H54.8838V20.5263H65.4312V22.3263H52.3259V17.4316H62.4627ZM60.8522 7.04214C61.4522 6.5053 61.768 5.87372 61.768 5.11582C61.768 4.35793 61.4522 3.72635 60.8522 3.22109C60.2522 2.68424 59.5259 2.43161 58.6733 2.43161C57.8206 2.43161 57.0943 2.68424 56.4943 3.22109C55.8943 3.75793 55.6101 4.38951 55.6101 5.11582C55.6101 5.87372 55.8943 6.5053 56.4943 7.04214C57.0943 7.57898 57.8206 7.83161 58.6733 7.83161C59.5259 7.83161 60.2522 7.57898 60.8522 7.04214Z" fill="#121212"/>
</g>
<defs>
<clipPath id="clip0_1373_3786">
<rect width="68.4316" height="24" fill="white"/>
</clipPath>
</defs>
</svg>
