<svg width="88" height="96" viewBox="0 0 88 96" fill="none" xmlns="http://www.w3.org/2000/svg">
<path d="M8.57115 72.5173C9.26701 72.8081 9.89999 73.2308 10.4351 73.7623C10.9774 74.291 11.4128 74.9192 11.7177 75.6126C12.0268 76.325 12.1863 77.0933 12.1863 77.8699C12.1863 78.6465 12.0268 79.4148 11.7177 80.1272C11.4128 80.8205 10.9774 81.4487 10.4351 81.9775C9.90225 82.5091 9.26851 82.9289 8.57115 83.2121C7.84787 83.5106 7.07232 83.6617 6.28991 83.6568C4.72486 83.6696 3.21754 83.0664 2.09338 81.9775C1.54652 81.4429 1.11199 80.8046 0.815329 80.0998C0.518665 79.395 0.365845 78.638 0.365845 77.8733C0.365845 77.1086 0.518665 76.3516 0.815329 75.6468C1.11199 74.942 1.54652 74.3036 2.09338 73.7691C2.64041 73.2411 3.28052 72.819 3.9813 72.5242C4.71155 72.2156 5.49718 72.0596 6.28991 72.0659C7.07308 72.06 7.84926 72.2136 8.57115 72.5173ZM3.91974 75.3389C3.28243 76.0255 2.93769 76.9333 2.95868 77.8699C2.9327 78.8062 3.27819 79.7148 3.91974 80.3973C4.21862 80.7277 4.5848 80.9902 4.99364 81.1672C5.40248 81.3442 5.84448 81.4315 6.28991 81.4234C6.72915 81.4304 7.1647 81.3423 7.56671 81.1652C7.96873 80.9881 8.3277 80.7261 8.61903 80.3973C9.25493 79.712 9.59635 78.8044 9.56983 77.8699C9.59145 76.9351 9.25076 76.0282 8.61903 75.3389C8.33083 75.0047 7.97302 74.7376 7.57068 74.5562C7.16834 74.3748 6.73121 74.2836 6.28991 74.289C5.84242 74.2822 5.39879 74.3726 4.98961 74.5539C4.58042 74.7351 4.21541 75.003 3.91974 75.3389ZM13.3936 85.6918V87.2445C13.3986 87.9532 13.605 88.646 13.9887 89.2419C14.4026 89.8981 14.9281 90.4768 15.5414 90.952C16.1158 91.49 16.7587 91.95 17.4533 92.32C18.0976 92.6765 18.7803 92.9588 19.4883 93.1614L18.0826 94.8372C17.4674 94.6681 16.8722 94.4331 16.3075 94.1361C15.6808 93.8145 15.0784 93.4475 14.5051 93.0382C13.9799 92.6577 13.489 92.232 13.0379 91.766C12.6394 91.364 12.2945 90.9122 12.0118 90.4218C11.7409 90.9041 11.401 91.3443 11.0029 91.7283C10.538 92.19 10.0346 92.611 9.49801 92.9869C8.91282 93.4093 8.29787 93.7887 7.65797 94.1224C7.08277 94.4286 6.47464 94.6684 5.84529 94.8372L4.4396 93.1614C5.21701 92.9149 5.96485 92.5834 6.66954 92.1729C7.42845 91.7466 8.12959 91.2248 8.75584 90.6202C9.27437 90.1563 9.71239 89.6097 10.0521 89.0025C10.3632 88.4573 10.5292 87.8414 10.5343 87.2137V85.661L13.3936 85.6918ZM16.3554 71.4023H18.8966V86.2561H16.3554V71.4023Z" fill="white"/>
<path d="M29.4956 79.8433C28.977 79.5509 28.5064 79.1807 28.1002 78.7454C27.7084 78.3197 27.3957 77.8275 27.1768 77.2919C26.949 76.7351 26.8328 76.1389 26.8348 75.5373C26.833 74.8589 26.985 74.1888 27.2794 73.5776C27.5763 72.9597 27.9965 72.4092 28.5141 71.9598C29.0472 71.4876 29.6613 71.1156 30.3267 70.862C31.0395 70.589 31.7968 70.451 32.5601 70.455C33.319 70.4499 34.072 70.588 34.7798 70.862C35.4471 71.1203 36.0649 71.4917 36.6061 71.9598C37.1126 72.4163 37.527 72.9654 37.8271 73.5776C38.1305 74.1862 38.2874 74.8573 38.2854 75.5373C38.2985 76.7199 37.8522 77.8614 37.0405 78.7215C36.2134 79.6238 35.1191 80.2375 33.9179 80.4726V81.7552H43.1044V83.7559H21.9816V81.7552H31.2604V80.4692C30.6404 80.3644 30.0432 80.1526 29.4956 79.8433ZM36.6403 88.8862V87.3813H25.6582V85.4318H39.3764V90.7296H28.432V92.2858H39.8553V94.2353H25.6582V88.8862H36.6403ZM34.9132 77.6373C35.2233 77.3827 35.4727 77.062 35.6431 76.6987C35.8135 76.3354 35.9007 75.9386 35.8982 75.5373C35.8982 75.1433 35.8096 74.7544 35.6392 74.3992C35.4687 74.044 35.2206 73.7317 34.9132 73.4852C34.2634 72.9209 33.4274 72.6175 32.5669 72.6336C31.7067 72.6127 30.8701 72.9167 30.2241 73.4852C29.9216 73.7347 29.6782 74.0481 29.5114 74.4029C29.3446 74.7578 29.2586 75.1452 29.2596 75.5373C29.2575 75.9365 29.3427 76.3314 29.5093 76.6941C29.6759 77.0569 29.9199 77.3788 30.2241 77.6373C30.8666 78.2128 31.7047 78.5211 32.5669 78.4992C33.4292 78.5148 34.2661 78.2074 34.9132 77.6373Z" fill="white"/>
<path d="M44.3118 86.3722H65.1747V88.5167H44.3118V86.3722ZM57.4144 84.9631C57.4805 84.7169 57.5592 84.3885 57.6504 83.9781C57.7393 83.5677 57.8248 83.1231 57.9103 82.6443C57.9958 82.1654 58.0676 81.714 58.1429 81.2386C58.2181 80.7632 58.2694 80.3322 58.3036 79.956C58.3674 79.1671 58.4416 78.287 58.5259 77.3157C58.6103 76.3443 58.6513 75.5383 58.649 74.8976H47.8892V72.7498H61.3886C61.3886 73.1123 61.3886 73.5261 61.3612 73.9947C61.3339 74.4633 61.3304 74.9626 61.3133 75.4893C61.2962 76.016 61.2723 76.5154 61.2415 77.0557C61.2107 77.5961 61.1663 78.0818 61.115 78.5503C61.0637 79.0189 60.9747 79.6174 60.8927 80.2262C60.8106 80.835 60.7217 81.4369 60.6225 82.0286C60.5233 82.6203 60.4241 83.1744 60.3283 83.6942C60.2326 84.2141 60.13 84.6348 60.0308 84.9631H57.4144Z" fill="white"/>
<path d="M66.3956 84.4468V82.5451H87.5185V84.4468H78.3901V86.9127H75.654V84.4468H66.3956ZM81.1023 75.5886V73.8785H70.0244V72.0521H83.8179V77.3328H72.7126V79.0429H84.2112V80.9411H70.0244V75.5886H81.1023ZM72.6648 85.849V88.12H81.2767V85.849H83.8658V94.1908H70.0723V85.8524L72.6648 85.849ZM72.6648 90.1174V92.1695H81.2767V90.1174H72.6648Z" fill="white"/>
<g clip-path="url(#clip0_409_3334)">
<path d="M43.9787 3.82639e-05C41.9722 -0.00550431 39.9718 0.220998 38.0174 0.675036H37.8611L37.7474 0.710565H37.7048C30.9989 2.28044 25.1465 6.35353 21.345 12.0964C17.5435 17.8393 16.0802 24.8178 17.2547 31.6041C18.4292 38.3903 22.1525 44.4712 27.6629 48.6026C33.1733 52.7339 40.0542 54.6033 46.8976 53.8283C53.7409 53.0533 60.0295 49.6924 64.4764 44.4334C68.9233 39.1744 71.1925 32.4149 70.8196 25.5378C70.4467 18.6608 67.4599 12.1863 62.4704 7.43897C57.4808 2.69167 50.8657 0.0305149 43.9787 3.82639e-05ZM44.0213 36.1658C42.208 36.1616 40.4366 35.6201 38.931 34.6096C37.4253 33.5991 36.2529 32.165 35.5619 30.4885C34.8709 28.812 34.6923 26.9683 35.0486 25.1904C35.405 23.4124 36.2803 21.7799 37.564 20.4992C38.8477 19.2185 40.4821 18.347 42.2609 17.9948C44.0397 17.6426 45.883 17.8254 47.5579 18.5203C49.2328 19.2152 50.6641 20.391 51.6711 21.899C52.6781 23.407 53.2155 25.1796 53.2155 26.9929C53.2137 29.4239 52.2476 31.7549 50.5293 33.4746C48.811 35.1942 46.4808 36.1621 44.0498 36.1658H44.0213ZM38.5148 11.4964C37.1051 13.5849 35.9975 15.8621 35.225 18.2606C33.52 19.9653 32.3527 22.1329 31.8677 24.4947C31.3828 26.8565 31.6014 29.3087 32.4966 31.5474C30.8351 29.8719 29.513 27.8911 28.6029 25.714C27.7087 23.6287 27.2865 21.3716 27.3663 19.1042C27.4461 16.8367 28.0261 14.6149 29.0647 12.5977C31.1395 8.33452 34.9337 4.85293 38.4863 3.8724C41.3737 3.18329 44.3649 3.0435 47.304 3.46031C43.7684 5.37932 40.7596 8.13921 38.5432 11.4964H38.5148ZM25.64 26.9787C27.5613 31.8031 31.2989 35.681 36.0492 37.7787C38.0824 38.6701 40.262 39.1806 42.4795 39.285C42.984 39.3471 43.4917 39.3803 44 39.3845C45.5981 39.3805 47.1805 39.0693 48.6611 38.4679C46.3021 41.0045 42.2663 43.534 35.5803 43.534C33.6183 43.5112 31.6826 43.0805 29.8961 42.2693C26.99 40.9761 23.0111 38.0843 20.6166 31.6895C20.3078 30.1454 20.1507 28.5747 20.1476 27C20.151 21.2528 22.233 15.7007 26.0095 11.3685C24.8164 13.7877 24.1676 16.439 24.1087 19.1358C24.0498 21.8326 24.5821 24.5096 25.6684 26.9787H25.64ZM35.4879 46.774H35.694C45.414 46.774 50.4658 42.0916 53.0024 38.1695C54.6559 35.5652 55.7294 32.6354 56.15 29.5793V29.5295C56.3258 28.6977 56.4162 27.8502 56.42 27C56.4202 25.3318 56.0818 23.6808 55.4253 22.1471C58.1603 24.7753 59.9723 28.2172 60.5908 31.9595C60.8693 34.4431 60.652 36.9572 59.9513 39.3561C58.8784 42.9656 56.0861 47.7971 48.9524 50.2627C45.4444 51.0135 41.8117 50.9592 38.3277 50.1039C34.8437 49.2485 31.5989 47.6145 28.8374 45.3245C30.9483 46.2374 33.2169 46.7297 35.5163 46.774H35.4879ZM63.0492 40.2656C63.9006 37.389 64.1426 34.3665 63.7598 31.3911C62.1113 23.014 57.365 18.9285 53.6703 16.9745C51.3015 15.7124 48.6949 14.9598 46.0179 14.7648C45.3603 14.6557 44.6951 14.5987 44.0284 14.5943C42.6647 14.5912 41.3101 14.817 40.0211 15.2622C40.3803 14.5849 40.7764 13.9278 41.2077 13.294C43.8587 9.22564 47.8588 6.22179 52.505 4.8103C56 6.15489 59.1276 8.30677 61.6326 11.0903C64.1375 13.8739 65.9488 17.2103 66.9187 20.8273C67.8886 24.4442 67.9896 28.2393 67.2134 31.9027C66.4372 35.5661 64.8058 38.9941 62.4524 41.9069C62.7224 41.374 62.9071 40.8269 63.0777 40.2656H63.0492Z" fill="#C47C5A"/>
</g>
<defs>
<clipPath id="clip0_409_3334">
<rect width="54" height="54" fill="white" transform="translate(17)"/>
</clipPath>
</defs>
</svg>
