<svg width="24" height="24" viewBox="0 0 24 24" fill="none" xmlns="http://www.w3.org/2000/svg">
<path d="M11.9875 4.41213e-05C11.0959 -0.00241859 10.2071 0.0982225 9.33869 0.299964H9.26923L9.21871 0.31575H9.19977C6.2202 1.01329 3.61981 2.82307 1.93069 5.3748C0.241573 7.92652 -0.40858 11.0273 0.113264 14.0426C0.635107 17.0579 2.2895 19.7598 4.73792 21.5955C7.18634 23.4311 10.2437 24.2618 13.2844 23.9174C16.3251 23.573 19.1192 22.0797 21.0951 19.743C23.071 17.4063 24.0793 14.4028 23.9136 11.3472C23.7479 8.29154 22.4208 5.41472 20.2038 3.30536C17.9868 1.19601 15.0476 0.0135857 11.9875 4.41213e-05ZM12.0064 16.0695C11.2007 16.0676 10.4136 15.827 9.74461 15.378C9.0756 14.929 8.55468 14.2918 8.24765 13.5469C7.94061 12.802 7.86125 11.9828 8.01958 11.1928C8.17791 10.4028 8.56683 9.67745 9.13722 9.10839C9.7076 8.53933 10.4338 8.15209 11.2242 7.99559C12.0146 7.83909 12.8336 7.92036 13.5778 8.22912C14.322 8.53788 14.958 9.06029 15.4054 9.73034C15.8528 10.4004 16.0916 11.188 16.0916 11.9937C16.0908 13.0739 15.6616 14.1096 14.8981 14.8737C14.1346 15.6378 13.0992 16.0678 12.019 16.0695H12.0064ZM9.55968 5.10817C8.93332 6.03617 8.44122 7.04801 8.09796 8.11369C7.34039 8.87117 6.82173 9.83429 6.60623 10.8837C6.39074 11.9331 6.48789 13.0227 6.88565 14.0174C6.14739 13.2729 5.55994 12.3928 5.15558 11.4255C4.75828 10.4989 4.57065 9.49603 4.60612 8.48853C4.6416 7.48102 4.8993 6.49381 5.36079 5.59752C6.28265 3.70328 7.96852 2.15632 9.54705 1.72064C10.83 1.41445 12.1591 1.35234 13.465 1.53754C11.894 2.39021 10.5571 3.6165 9.57231 5.10817H9.55968ZM3.83909 11.9874C4.69275 14.131 6.35346 15.8541 8.46418 16.7861C9.36758 17.1822 10.336 17.4091 11.3213 17.4554C11.5455 17.483 11.7711 17.4978 11.9969 17.4996C12.707 17.4978 13.4101 17.3596 14.068 17.0924C13.0198 18.2194 11.2266 19.3434 8.25581 19.3434C7.38407 19.3332 6.52396 19.1418 5.73016 18.7814C4.43892 18.2068 2.67097 16.9219 1.60704 14.0805C1.46984 13.3944 1.40005 12.6966 1.39868 11.9969C1.40015 9.44323 2.32526 6.9763 4.00325 5.05134C3.47313 6.1263 3.18485 7.3043 3.15867 8.50258C3.13249 9.70085 3.36905 10.8903 3.85171 11.9874H3.83909ZM8.21477 20.783H8.30632C12.6252 20.783 14.8699 18.7025 15.9969 16.9598C16.7316 15.8026 17.2086 14.5008 17.3955 13.1429V13.1208C17.4736 12.7512 17.5138 12.3746 17.5155 11.9969C17.5156 11.2556 17.3652 10.5221 17.0735 9.84061C18.2887 11.0083 19.0938 12.5377 19.3687 14.2005C19.4924 15.304 19.3958 16.4211 19.0845 17.487C18.6078 19.0908 17.3671 21.2376 14.1974 22.3331C12.6387 22.6667 11.0246 22.6426 9.47657 22.2625C7.92853 21.8825 6.48679 21.1564 5.25976 20.1389C6.19769 20.5445 7.20572 20.7633 8.2274 20.783H8.21477ZM20.461 17.8911C20.8393 16.613 20.9468 15.27 20.7767 13.9479C20.0443 10.2258 17.9354 8.41046 16.2937 7.54226C15.2412 6.9815 14.083 6.64705 12.8935 6.56042C12.6013 6.51197 12.3058 6.48664 12.0096 6.48465C11.4036 6.4833 10.8017 6.58361 10.229 6.78142C10.3886 6.48049 10.5646 6.18854 10.7562 5.90691C11.9341 4.09923 13.7115 2.76454 15.7759 2.13738C17.3289 2.73481 18.7185 3.69095 19.8316 4.92777C20.9446 6.16459 21.7494 7.64704 22.1803 9.25415C22.6113 10.8613 22.6561 12.5475 22.3112 14.1753C21.9664 15.803 21.2415 17.3262 20.1958 18.6204C20.3158 18.3836 20.3979 18.1405 20.4736 17.8911H20.461Z" fill="#C47C5A"/>
</svg>
