<svg width="24" height="24" viewBox="0 0 24 24" fill="none" xmlns="http://www.w3.org/2000/svg">
<path d="M5.1499 19H6.3999L15.6499 9.75001L14.4249 8.50001L5.1499 17.775V19ZM18.8499 8.65001L15.4749 5.30001L16.7999 4.00001C17.0832 3.71668 17.4376 3.57501 17.8629 3.57501C18.2876 3.57501 18.6416 3.71668 18.9249 4.00001L20.1499 5.22501C20.4332 5.52501 20.5832 5.87901 20.5999 6.28701C20.6166 6.69568 20.4749 7.04168 20.1749 7.32501L18.8499 8.65001ZM4.5499 20.5C4.2999 20.5 4.08757 20.4127 3.9129 20.238C3.73757 20.0627 3.6499 19.85 3.6499 19.6V17.5C3.6499 17.3833 3.6709 17.271 3.7129 17.163C3.75424 17.0543 3.8249 16.95 3.9249 16.85L14.3999 6.37501L17.7749 9.75001L7.2999 20.225C7.1999 20.325 7.0959 20.396 6.9879 20.438C6.87924 20.4793 6.76657 20.5 6.6499 20.5H4.5499ZM15.0249 9.12501L14.4249 8.50001L15.6499 9.75001L15.0249 9.12501Z" fill="white"/>
</svg>
