<svg width="20" height="20" viewBox="0 0 20 20" fill="none" xmlns="http://www.w3.org/2000/svg">
<g clip-path="url(#clip0_486_3398)">
<circle cx="10" cy="10" r="10" fill="#121212"/>
<path d="M4.11755 7.67857L5.62497 8.75V10.5357L4.11758 11.9643L5.22052 13.75L7.05873 13.3929L8.52932 14.1071L9.11759 15.625H10.9558L11.4705 14.1071L13.125 13.125L14.375 13.75L15.1103 11.9643L14.4117 10.5357V9.10714L15.625 8.125L15 6.875L12.9411 6.25C12.5734 6.13095 11.7646 5.82143 11.4705 5.53571C11.1764 5.25 10.9558 4.85119 10.9558 4.375H8.74991L8.52932 6.25L7.05873 6.62781L5.22049 5.89286L4.11755 7.67857Z" fill="#EFEFEF"/>
<path d="M11.0277 16.25H8.95519C8.80675 16.25 8.67544 16.2007 8.56125 16.102C8.44706 16.0033 8.37855 15.8772 8.35571 15.7237L8.15018 14.2434C7.96748 14.1886 7.78204 14.1064 7.59386 13.9967C7.40522 13.8871 7.23098 13.7719 7.07112 13.6513L5.64949 14.2434C5.50105 14.2982 5.35558 14.3037 5.21307 14.2599C5.07011 14.216 4.95296 14.1283 4.86161 13.9967L3.83393 12.2697C3.754 12.1382 3.73116 11.9982 3.76542 11.85C3.79967 11.7022 3.87389 11.5844 3.98808 11.4967L5.23842 10.5921C5.21558 10.4934 5.20142 10.3947 5.19594 10.2961C5.19001 10.1974 5.18704 10.0987 5.18704 10C5.18704 9.91228 5.19001 9.81908 5.19594 9.72039C5.20142 9.62171 5.21558 9.51754 5.23842 9.4079L3.98808 8.50329C3.87389 8.41557 3.79967 8.29781 3.76542 8.15C3.73116 8.00175 3.754 7.86184 3.83393 7.73026L4.86161 6.01974C4.94154 5.88816 5.05572 5.80044 5.20417 5.75658C5.35261 5.71272 5.49534 5.7182 5.63236 5.77303L7.07112 6.34868C7.23098 6.22807 7.40522 6.11579 7.59386 6.01184C7.78204 5.90746 7.96748 5.82237 8.15018 5.75658L8.35571 4.27632C8.37855 4.12281 8.44706 3.99671 8.56125 3.89803C8.67544 3.79934 8.80675 3.75 8.95519 3.75H11.0277C11.1875 3.75 11.3246 3.79934 11.4387 3.89803C11.5529 3.99671 11.6214 4.12281 11.6443 4.27632L11.8498 5.75658C12.0554 5.83333 12.2408 5.9182 12.4061 6.01118C12.5719 6.10461 12.7405 6.21711 12.9118 6.34868L14.3676 5.77303C14.5047 5.7182 14.6447 5.71272 14.7876 5.75658C14.9301 5.80044 15.047 5.88816 15.1384 6.01974L16.1661 7.73026C16.246 7.86184 16.2688 8.00175 16.2346 8.15C16.2003 8.29781 16.1261 8.41557 16.0119 8.50329L14.7444 9.42434C14.7673 9.53399 14.7787 9.63268 14.7787 9.72039V10C14.7787 10.0877 14.7757 10.1781 14.7698 10.2711C14.7643 10.3645 14.7502 10.4715 14.7273 10.5921L15.9777 11.4967C16.1033 11.5844 16.1832 11.7022 16.2175 11.85C16.2517 11.9982 16.2232 12.1382 16.1318 12.2697L15.1041 13.9803C15.0242 14.1118 14.91 14.1996 14.7616 14.2434C14.6131 14.2873 14.4647 14.2818 14.3162 14.227L12.9118 13.6513C12.7405 13.7829 12.5665 13.898 12.3897 13.9967C12.2125 14.0954 12.0325 14.1776 11.8498 14.2434L11.6443 15.7237C11.6214 15.8772 11.5529 16.0033 11.4387 16.102C11.3246 16.2007 11.1875 16.25 11.0277 16.25ZM10 11.9737C10.5709 11.9737 11.0562 11.7818 11.4559 11.398C11.8555 11.0143 12.0554 10.5482 12.0554 10C12.0554 9.45175 11.8555 8.98575 11.4559 8.60197C11.0562 8.2182 10.5709 8.02632 10 8.02632C9.42907 8.02632 8.94377 8.2182 8.54412 8.60197C8.14447 8.98575 7.94464 9.45175 7.94464 10C7.94464 10.5482 8.14447 11.0143 8.54412 11.398C8.94377 11.7818 9.42907 11.9737 10 11.9737ZM10 10.9868C9.71453 10.9868 9.472 10.8908 9.2724 10.6987C9.07235 10.507 8.97232 10.2741 8.97232 10C8.97232 9.72588 9.07235 9.49298 9.2724 9.30132C9.472 9.10921 9.71453 9.01316 10 9.01316C10.2855 9.01316 10.528 9.10921 10.7276 9.30132C10.9277 9.49298 11.0277 9.72588 11.0277 10C11.0277 10.2741 10.9277 10.507 10.7276 10.6987C10.528 10.8908 10.2855 10.9868 10 10.9868ZM9.31488 15.2632H10.668L10.9078 13.5033C11.2618 13.4156 11.5815 13.2895 11.8669 13.125C12.1524 12.9605 12.4322 12.7522 12.7062 12.5L14.4019 13.1908L15.087 12.0724L13.5969 11.0033C13.654 10.8279 13.6912 10.6579 13.7085 10.4934C13.7254 10.3289 13.7339 10.1645 13.7339 10C13.7339 9.82456 13.7254 9.65746 13.7085 9.49868C13.6912 9.33947 13.654 9.17763 13.5969 9.01316L15.087 7.92763L14.419 6.80921L12.6891 7.5C12.4607 7.26974 12.1867 7.06404 11.8669 6.88289C11.5472 6.70219 11.2275 6.57347 10.9078 6.49671L10.6851 4.73684H9.33201L9.09222 6.49671C8.74966 6.57347 8.42993 6.69408 8.13305 6.85855C7.83616 7.02303 7.5507 7.23136 7.27665 7.48355L5.58098 6.80921L4.91299 7.92763L6.386 8.98026C6.3289 9.14474 6.28894 9.30921 6.2661 9.47368C6.24326 9.63816 6.23184 9.8136 6.23184 10C6.23184 10.1754 6.24326 10.3454 6.2661 10.5099C6.28894 10.6743 6.3289 10.8388 6.386 11.0033L4.91299 12.0724L5.58098 13.1908L7.27665 12.5C7.53928 12.7522 7.81904 12.9605 8.11592 13.125C8.41281 13.2895 8.73824 13.4156 9.09222 13.5033L9.31488 15.2632Z" fill="#EFEFEF"/>
<path d="M11.4167 11.4167C11.0278 11.8056 10.5556 12 10 12C9.44444 12 8.97222 11.8056 8.58333 11.4167C8.19444 11.0278 8 10.5556 8 10C8 9.44444 8.19444 8.97222 8.58333 8.58333C8.97222 8.19444 9.44444 8 10 8C10.5556 8 11.0278 8.19444 11.4167 8.58333C11.8056 8.97222 12 9.44444 12 10C12 10.5556 11.8056 11.0278 11.4167 11.4167Z" fill="#121212"/>
</g>
<defs>
<clipPath id="clip0_486_3398">
<rect width="20" height="20" fill="white"/>
</clipPath>
</defs>
</svg>
